<svg xmlns="http://www.w3.org/2000/svg" viewBox="0 0 64 64"><path fill="#FFF" d="M48 59.5H16c-2.75 0-5-2.25-5-5v-45c0-2.75 2.25-5 5-5h32c2.75 0 5 2.25 5 5v45c0 2.75-2.25 5-5 5zm0 0"></path><path fill="#E9EEF4" d="M43 31H21c-.852 0-1.5-.648-1.5-1.5S20.148 28 21 28h22c.852 0 1.5.648 1.5 1.5S43.852 31 43 31zm-5-15H26c-.852 0-1.5-.648-1.5-1.5S25.148 13 26 13h12c.852 0 1.5.648 1.5 1.5S38.852 16 38 16zm5 22.5H21c-.852 0-1.5-.648-1.5-1.5s.648-1.5 1.5-1.5h22c.852 0 1.5.648 1.5 1.5s-.648 1.5-1.5 1.5zM35 46H21c-.852 0-1.5-.648-1.5-1.5S20.148 43 21 43h14c.852 0 1.5.648 1.5 1.5S35.852 46 35 46zm0 0"></path><path fill="#1FD4AF" d="M53 41c-5.523 0-10 4.477-10 10s4.477 10 10 10 10-4.477 10-10-4.477-10-10-10zm0 0"></path><path fill="#FFF" d="M59.75 43.648l-6.7 7.5-2.402-3.097c-.5-.653-1.449-.75-2.097-.25-.653.5-.75 1.449-.25 2.097l3.5 4.5c.25.352.699.551 1.148.602H53c.45 0 .852-.2 1.102-.5l7.546-8.5a10.633 10.633 0 00-1.898-2.352zm0 0"></path><path fill="#444B54" d="M16 61h25.5c.852 0 1.5-.648 1.5-1.5s-.648-1.5-1.5-1.5H16a3.48 3.48 0 01-3.5-3.5v-45C12.5 7.55 14.05 6 16 6h32c.95 0 1.8.352 2.5 1.05.648.65 1 1.552 1 2.5l-.05 26.5c0 .848.652 1.5 1.5 1.5.85 0 1.5-.652 1.5-1.5l.05-26.5c0-1.75-.648-3.35-1.898-4.6C51.352 3.7 49.75 3 48 3H16a6.485 6.485 0 00-6.5 6.5v45c0 3.602 2.898 6.5 6.5 6.5zm0 0"></path></svg>