<svg xmlns="http://www.w3.org/2000/svg" viewBox="0 0 64 64"><path fill="#FFF" d="M22.45 58.5l-5.4 3.55.4-6.448a20.236 20.236 0 012.652-8.801L40.25 11.898C41.648 9.5 44.7 8.7 47.102 10.051c2.398 1.398 3.199 4.449 1.847 6.847L28.801 51.801c-1.602 2.699-3.75 5-6.352 6.699zm0 0"></path><path fill="#C0E7FF" d="M28.7 47.45c-.25 0-.5-.052-.75-.2-.7-.398-.95-1.352-.552-2.05l16.403-28.4c.398-.698 1.347-.948 2.05-.55.7.398.95 1.352.547 2.05L30 46.7c-.3.5-.8.75-1.3.75zm0 0"></path><path fill="#444B54" d="M49.95 18.102l.25-.454a6.56 6.56 0 00.652-4.949C50.398 11 49.352 9.602 47.8 8.75a6.541 6.541 0 00-4.95-.648c-1.703.449-3.101 1.5-3.953 3.046L18.801 46.051c-1.653 2.898-2.653 6.148-2.852 9.449l-.398 6.45c-.051.55.25 1.1.75 1.402.25.148.5.199.75.199.3 0 .597-.102.847-.25l5.403-3.551c2.75-1.852 5.097-4.3 6.75-7.2l18.347-31.8c1.352 1.05 1.75 2.95.852 4.5l-10.5 18.2c-.398.698-.148 1.652.55 2.05a1.509 1.509 0 002.05-.55l10.502-18.2c1.75-3 .847-6.75-1.903-8.648zM27.5 51.05a19.238 19.238 0 01-5.852 6.199l-2.898 1.898.2-3.449c.152-2.847 1-5.648 2.448-8.148l20.153-34.903a3.587 3.587 0 013.05-1.75c.598 0 1.2.153 1.75.454.797.449 1.399 1.199 1.649 2.148.25.95.102 1.852-.352 2.648zm22 12.449h-20c-.852 0-1.5-.648-1.5-1.5s.648-1.5 1.5-1.5h20c.852 0 1.5.648 1.5 1.5s-.648 1.5-1.5 1.5zm7.5-3a1.5 1.5 0 100 3 1.5 1.5 0 000-3zm0 0"></path></svg>