<svg xmlns="http://www.w3.org/2000/svg" viewBox="0 0 64 64"><path fill="#F48884" d="M40.25 24.5h-14c-5.602 0-10.45 3.05-13 7.55-.852 1.552-2.55 2.45-4.3 2.45h-1.7v10h1.7c1.75 0 3.402.898 4.3 2.45 2.602 4.5 7.45 7.55 13 7.55h14c8.3 0 15-6.7 15-15s-6.75-15-15-15zm0 0"></path><path fill="#454B54" d="M40.25 56h-14c-5.898 0-11.398-3.2-14.352-8.3-.597-1.052-1.75-1.7-3-1.7H7.2c-.847 0-1.5-.648-1.5-1.5v-10c0-.852.653-1.5 1.5-1.5h1.7c1.25 0 2.402-.648 3-1.7C14.851 26.2 20.3 23 26.25 23h14c9.102 0 16.5 7.398 16.5 16.5S49.3 56 40.25 56zM8.75 43h.2c2.3 0 4.448 1.2 5.6 3.2 2.4 4.198 6.9 6.8 11.7 6.8h14c7.45 0 13.5-6.05 13.5-13.5S47.7 26 40.25 26h-14c-4.852 0-9.3 2.602-11.7 6.8a6.493 6.493 0 01-5.6 3.2h-.2zm0 0"></path><path fill="#454B54" d="M17.898 36c-.398 0-.796-.148-1.046-.45-.301-.3-.454-.652-.454-1.05s.153-.8.454-1.05c.546-.552 1.546-.552 2.097 0 .301.3.45.652.45 1.05s-.149.8-.45 1.05c-.25.302-.648.45-1.05.45zm0 0"></path><path fill="#F48884" d="M30.75 50.5c-1.102 0-.5.898-.5 2l-1.5 6.5c0 .852-.648 1.5-1.5 1.5h-3.5c-.852 0-1.5-.648-1.5-1.5v-6.5m14 0l2 6.5c0 .852.648 1.5 1.5 1.5h3.5c.852 0 1.5-.648 1.5-1.5v-6.5"></path><path fill="#454B54" d="M43.25 62h-3.5c-1.55 0-2.852-1.2-3-2.7L35.3 55c-.25-.8.15-1.648.95-1.898.8-.25 1.648.148 1.898.949l1.5 4.5c.051.148.102.3.102.449h3.5v-5.2c0-.85.648-1.5 1.5-1.5s1.5.65 1.5 1.5V59c0 1.648-1.352 3-3 3zm-16 0h-3.5a3.01 3.01 0 01-3-3v-5.05c0-.848.648-1.5 1.5-1.5s1.5.652 1.5 1.5V59h3.5c0-.102 0-.25.05-.352l1.5-6.5a1.492 1.492 0 012.9.704l-1.45 6.347C30.102 60.75 28.8 62 27.25 62zm0 0"></path><path fill="#F48884" d="M17.25 21c4.148 0 7.5 1.852 7.5 6v2.5h-7.5zm0 0"></path><path fill="#454B54" d="M17.25 31c-.852 0-1.5-.648-1.5-1.5V21c0-.852.648-1.5 1.5-1.5 5.45 0 9 2.95 9 7.5 0 .852-.648 1.5-1.5 1.5s-1.5-.648-1.5-1.5c0-3.148-2.55-4.102-4.5-4.398V29.5c0 .852-.7 1.5-1.5 1.5zm40.5 10H55.2c-.848 0-1.5-.648-1.5-1.5s.652-1.5 1.5-1.5h2.55c.852 0 1.5.648 1.5 1.5s-.648 1.5-1.5 1.5zm0 0"></path><path fill="#F8E390" d="M43.75 12.25c-6.516 0-11.8 5.484-11.8 12.25s5.284 12.25 11.8 12.25c6.516 0 11.8-5.484 11.8-12.25s-5.284-12.25-11.8-12.25zm0 0"></path><path fill="#454B54" d="M43.75 38.25c-7.352 0-13.3-6.148-13.3-13.75s5.948-13.75 13.3-13.75 13.3 6.148 13.3 13.75-6 13.75-13.3 13.75zm0-24.5c-5.7 0-10.3 4.8-10.3 10.75s4.6 10.75 10.3 10.75c5.7 0 10.3-4.8 10.3-10.75s-4.652-10.75-10.3-10.75zm0 0"></path><path fill="#FFF" d="M43.75 17.148c-3.922 0-7.102 3.293-7.102 7.352s3.18 7.352 7.102 7.352 7.102-3.293 7.102-7.352-3.18-7.352-7.102-7.352zm0 0"></path><path fill="#F48884" d="M30.25 30.5h9c5.5 0 10 4.5 10 10l-8.25.75c-6.3.602-10.75-4.398-10.75-10.75zm0 0"></path></svg>