<svg xmlns="http://www.w3.org/2000/svg" viewBox="0 0 64 64"><path fill="#F1C0C3" d="M8.75 46.95v-.098c0-4.704 3.8-8.5 8.45-8.5l38-.051.05 17.05-38 .047c-4.648.051-8.45-3.75-8.5-8.449zm0 0"></path><path fill="#FCF7CB" d="M11.3 41l26.802-27.2 12 12L23.3 53zm0 0"></path><path fill="#454B54" d="M27.2 57.05c-.848 0-1.5-.652-1.5-1.5 0-.85.652-1.5 1.5-1.5L53.75 54V39.95l-14.7.05c-.85 0-1.5-.648-1.5-1.5s.65-1.5 1.5-1.5l16.15-.05c.402 0 .8.152 1.05.448.3.301.45.653.45 1.051l.05 17.051c0 .852-.648 1.5-1.5 1.5zm0 0"></path><path fill="#454B54" d="M30.3 47.5c-.402 0-.75-.148-1.05-.45-.602-.6-.602-1.55 0-2.1L48 25.8l-9.898-9.902-25.75 26.153c-.602.597-1.551.597-2.102 0-.602-.602-.602-1.551 0-2.102l26.8-27.199c.302-.3.65-.45 1.052-.45.398 0 .796.15 1.046.45l12 12c.602.602.602 1.5 0 2.102L31.352 47.05c-.301.3-.704.449-1.051.449zm0 0"></path><path fill="#FFF" d="M17.3 55.45c-4.652 0-8.448-3.802-8.448-8.45V8.55H25.75V47a8.44 8.44 0 01-8.45 8.45"></path><path fill="#E5EFF5" d="M25.75 28.602H8.852v9.796H25.75v-9.796"></path><path fill="#C1D8E8" d="M25.75 18.8H8.852v9.802H25.75V18.8"></path><path fill="#98BED8" d="M8.852 8.55H25.75v9.802H8.852zm0 0"></path><path fill="#454B54" d="M25.75 39.898H8.852c-.852 0-1.5-.648-1.5-1.5 0-.847.648-1.5 1.5-1.5H25.75c.852 0 1.5.653 1.5 1.5 0 .852-.648 1.5-1.5 1.5zm-.602-9.796H9.102c-.852 0-1.5-.653-1.5-1.5 0-.852.648-1.5 1.5-1.5h16.046c.852 0 1.5.648 1.5 1.5 0 .847-.699 1.5-1.5 1.5zm.602-10.25H8.852c-.852 0-1.5-.653-1.5-1.5 0-.852.648-1.5 1.5-1.5H25.75c.852 0 1.5.648 1.5 1.5 0 .847-.648 1.5-1.5 1.5zm0 0"></path><path fill="#454B54" d="M17.3 56.95c-5.5 0-9.948-4.45-9.948-9.95V8.55c0-.85.648-1.5 1.5-1.5H25.75c.852 0 1.5.65 1.5 1.5V47c0 5.5-4.45 9.95-9.95 9.95zm-6.948-46.9V47a6.932 6.932 0 006.949 6.95A6.934 6.934 0 0024.25 47V10.05zm0 0"></path><path fill="#454B54" d="M17.3 50.648c-2 0-3.6-1.648-3.6-3.648s1.6-3.648 3.6-3.648S20.899 45 20.899 47s-1.597 3.648-3.597 3.648zm0-4.25c-.35 0-.6.301-.6.653 0 .347.25.648.6.648.348 0 .598-.3.598-.648.051-.403-.25-.653-.597-.653zm0 0"></path></svg>