<svg xmlns="http://www.w3.org/2000/svg" viewBox="0 0 64 64"><path fill="#8CCFB9" d="M31.602 47.148H49.5c5.5 0 10-4.5 10-10v-21.25c0-5.5-4.5-10-10-10h-35c-5.5 0-10 4.5-10 10v38.75l12.5-7.5"></path><path fill="#464C55" d="M4.5 56.148c-.25 0-.5-.046-.75-.199-.45-.25-.75-.75-.75-1.3v-38.75c0-6.348 5.148-11.5 11.5-11.5h35c6.352 0 11.5 5.152 11.5 11.5v21.25c0 6.351-5.148 11.5-11.5 11.5H17.398l-12.148 7.3c-.2.153-.5.2-.75.2zm10-48.75c-4.7 0-8.5 3.801-8.5 8.5V52l10.25-6.148c.25-.153.5-.204.75-.204h32.5c4.7 0 8.5-3.796 8.5-8.5v-21.25c0-4.699-3.8-8.5-8.5-8.5zm0 0"></path><path fill="#FFF" d="M47 20.898H17c-.852 0-1.5-.648-1.5-1.5 0-.847.648-1.5 1.5-1.5h30c.852 0 1.5.653 1.5 1.5 0 .852-.648 1.5-1.5 1.5zm0 7.5H17c-.852 0-1.5-.648-1.5-1.5 0-.847.648-1.5 1.5-1.5h30c.852 0 1.5.653 1.5 1.5 0 .852-.648 1.5-1.5 1.5zm-10 7.5H17c-.852 0-1.5-.648-1.5-1.5 0-.847.648-1.5 1.5-1.5h20c.852 0 1.5.653 1.5 1.5 0 .852-.648 1.5-1.5 1.5zm10 0c-.852 0-1.5-.648-1.5-1.5 0-.847.648-1.5 1.5-1.5s1.5.653 1.5 1.5c0 .852-.648 1.5-1.5 1.5zm0 0"></path></svg>