<svg xmlns="http://www.w3.org/2000/svg" viewBox="0 0 64 58"><path fill="#FFF" d="M49.5 27c5.5 0 10 4.5 10 10s-4.5 10-10 10h-35c-5.5 0-10-4.5-10-10s4.5-10 10-10H17v-2.5c0-8.3 6.7-15 15-15s15 6.7 15 15V27zm0 0"></path><path fill="#71C2FF" d="M32 53.5c-.852 0-1.5-.648-1.5-1.5V37c0-.852.648-1.5 1.5-1.5s1.5.648 1.5 1.5v15c0 .852-.648 1.5-1.5 1.5zm0 0"></path><path fill="#71C2FF" d="M32 53.5a1.44 1.44 0 01-1.05-.45l-5-5c-.598-.6-.598-1.55 0-2.1.6-.598 1.55-.598 2.1 0L32 49.897l3.95-3.949c.6-.597 1.55-.597 2.1 0 .598.602.598 1.551 0 2.102l-5 5c-.3.3-.652.449-1.05.449zm0 0"></path><path fill="#444B54" d="M49.5 48.5h-5c-.852 0-1.5-.648-1.5-1.5s.648-1.5 1.5-1.5h5c4.7 0 8.5-3.8 8.5-8.5s-3.8-8.5-8.5-8.5H47c-.852 0-1.5-.648-1.5-1.5v-2.5C45.5 17.05 39.45 11 32 11s-13.5 6.05-13.5 13.5V27c0 .852-.648 1.5-1.5 1.5h-2.5C9.8 28.5 6 32.3 6 37s3.8 8.5 8.5 8.5h5c.852 0 1.5.648 1.5 1.5s-.648 1.5-1.5 1.5h-5C8.148 48.5 3 43.352 3 37s5.148-11.5 11.5-11.5h1v-1C15.5 15.398 22.898 8 32 8s16.5 7.398 16.5 16.5v1h1C55.852 25.5 61 30.648 61 37s-5.148 11.5-11.5 11.5zm0 0"></path></svg>