<svg
                xmlns="http://www.w3.org/2000/svg"
                fill="none"
                viewBox="0 0 66 57"
                 className="mr-3 w-6"
              >
                <g clip-path="url(#clip0_767_6556)">
                  <path
                    fill="#200E32"
                    d="M.997 17.54v27.211c0 .91.856 1.647 1.911 1.647h9.12c1.055 0 1.91-.737 1.91-1.647v-4.775c0-.91-.855-1.646-1.91-1.646-1.056 0-1.912.737-1.912 1.646v3.129H4.82V19.187h5.297v12.796c0 .91.856 1.647 1.911 1.647 1.056 0 1.912-.738 1.912-1.647V17.541c0-.91-.856-1.647-1.912-1.647H2.908c-1.055 0-1.91.737-1.91 1.647z"
                  ></path>
                  <path
                    fill="#FFDBAD"
                    d="M40.859 33.168h2.025c2.024 0 3.748-1.423 3.82-3.252.076-1.92-1.624-3.497-3.73-3.497h-2.186l19.564-.037c2.062 0 3.734-1.51 3.734-3.374v-.13c0-1.864-1.672-3.375-3.734-3.375H33.308l9.28-3.283c2.002-.578 3.106-2.514 2.467-4.323-.64-1.81-2.782-2.808-4.785-2.23l-17.233 7.21c-2.128.89-3.49 2.817-3.492 4.937l-.01 19.405c-.001 3.007 2.695 5.445 6.022 5.445l14.797.002c2.062 0 3.734-1.51 3.734-3.374s-1.672-3.375-3.734-3.375h.887c2.062 0 3.734-1.51 3.734-3.375 0-1.863-1.672-3.374-3.734-3.374"
                  ></path>
                  <path
                    fill="#200E32"
                    d="M17.624 41.222c0 1.878.813 3.647 2.29 4.983 1.501 1.358 3.505 2.106 5.642 2.106l14.797.002c3.113 0 5.645-2.253 5.645-5.021 0-1.1-.4-2.118-1.076-2.946 1.202-.922 1.963-2.285 1.963-3.803 0-.94-.292-1.822-.8-2.575 1.477-.865 2.463-2.318 2.529-3.996a4.534 4.534 0 00-.35-1.92l12.092-.023c3.109 0 5.641-2.253 5.641-5.021v-.13c0-2.769-2.532-5.021-5.645-5.021h-17.36l.269-.096c2.929-.88 4.551-3.712 3.622-6.344-.47-1.329-1.5-2.402-2.9-3.024a6.333 6.333 0 00-4.32-.288 2.08 2.08 0 00-.227.08l-17.234 7.21c-2.774 1.16-4.567 3.68-4.569 6.418l-.01 19.405v.004zm24.552 2.07c0 .953-.818 1.728-1.823 1.728l-14.796-.002a4.27 4.27 0 01-2.876-1.084c-.797-.72-1.235-1.684-1.235-2.712v-.002l.01-19.406c0-1.486.949-2.842 2.416-3.456l17.102-7.155c.42-.099.863-.058 1.257.117.475.211.829.586.995 1.056.34.963-.219 1.986-1.245 2.282a2.09 2.09 0 00-.12.039l-9.28 3.283c-.844.299-1.327 1.07-1.149 1.842.177.771.963 1.328 1.875 1.328h27.045c1.005 0 1.823.775 1.823 1.728v.13c0 .953-.818 1.728-1.823 1.728l-19.568.036c-1.054.002-1.907.739-1.907 1.647v.002c.001.909.856 1.645 1.911 1.645h2.185c.465 0 .908.166 1.247.469.39.348.594.819.575 1.326-.036.916-.894 1.66-1.911 1.66h-2.026c-1.055 0-1.91.738-1.91 1.647 0 .91.855 1.647 1.91 1.647h.383c1.005 0 1.822.775 1.822 1.728s-.817 1.728-1.822 1.728h-.888c-1.055 0-1.911.737-1.911 1.647 0 .909.856 1.646 1.911 1.646 1.005 0 1.823.775 1.823 1.728z"
                  ></path>
                </g>
                <defs>
                  <clipPath id="clip0_767_6556">
                    <path
                      fill="#fff"
                      d="M0 0H56V65H0z"
                      transform="matrix(0 -1 -1 0 65.997 56.084)"
                    ></path>
                  </clipPath>
                </defs>
              </svg>
