<svg
                    viewBox="0 0 17 17"
                    xmlns="http://www.w3.org/2000/svg"
                     className="mr-[2px] mb-[1px] h-[18px] w-[18px]"
                  >
                    <path
                      d="M10.563 6.47a4.678 4.678 0 0 0-1.126-.812.387.387 0 0 0-.437.094l-.125.125c-.281.25-.438.594-.469.937-.031.157.063.313.188.407.281.125.531.28.719.5a2.622 2.622 0 0 1 0 3.719l-2.344 2.343a2.622 2.622 0 0 1-3.719 0 2.622 2.622 0 0 1 0-3.718l1.438-1.438a.353.353 0 0 0 .093-.344c-.093-.375-.125-.781-.156-1.187 0-.313-.406-.47-.625-.25L2.031 8.814c-1.719 1.72-1.719 4.5 0 6.188 1.688 1.719 4.469 1.719 6.188 0 2.562-2.563 2.437-2.438 2.625-2.688 1.406-1.687 1.312-4.25-.281-5.843Zm4.874-4.874c-1.687-1.719-4.468-1.719-6.187 0-2.563 2.562-2.438 2.437-2.625 2.687-1.406 1.688-1.313 4.25.281 5.844.344.344.719.594 1.125.813a.387.387 0 0 0 .438-.094l.125-.125c.281-.25.437-.594.469-.938.03-.156-.063-.312-.188-.406-.281-.125-.531-.281-.719-.5a2.622 2.622 0 0 1 0-3.719L10.5 2.814a2.622 2.622 0 0 1 3.719 0 2.622 2.622 0 0 1 0 3.72L12.78 7.97a.353.353 0 0 0-.094.343c.094.375.126.782.157 1.188 0 .312.406.469.625.25l1.969-1.969c1.718-1.719 1.718-4.5 0-6.187Z"
                      fill="#dddddd"
                    ></path>
                  </svg>
