<svg xmlns="http://www.w3.org/2000/svg" viewBox="0 0 64 64"><path fill="#F2E5AC" d="M20.898 11.05v-2a4.59 4.59 0 014.602-4.6h21c1.2 0 2.398.5 3.25 1.35l6.5 6.5a4.655 4.655 0 011.352 3.25v32.5c0 2.552-2.051 4.598-4.602 4.598H41.7L20.897 11.051"></path><path fill="#D9CE9A" d="M30 6.8h-8.5c-.148.25-.25.45-.352.75-.046.098-.046.2-.097.302a4.937 4.937 0 00-.153 1.25v1.949L41.7 52.648h3.95V22.45c0-2.449-.95-4.75-2.7-6.5L36.5 9.5A9.116 9.116 0 0030 6.8"></path><path fill="#454B54" d="M53 54.148H41.7c-.848 0-1.5-.648-1.5-1.5 0-.847.652-1.5 1.5-1.5H53c1.7 0 3.102-1.398 3.102-3.097v-32.5c0-.801-.301-1.602-.903-2.2l-6.5-6.5A3.176 3.176 0 0046.5 6h-21a3.117 3.117 0 00-3.102 3.102v2c0 .847-.648 1.5-1.5 1.5-.847 0-1.5-.653-1.5-1.5v-2C19.398 5.75 22.148 3 25.5 3h21c1.602 0 3.148.648 4.3 1.8l6.5 6.5a6.102 6.102 0 011.802 4.302v32.5c0 3.296-2.75 6.046-6.102 6.046zm0 0"></path><path fill="#FFF" d="M36.5 59.5H9a4.59 4.59 0 01-4.602-4.602V15.95c0-2.55 2.051-4.597 4.602-4.597h21c1.2 0 2.398.5 3.25 1.347l6.5 6.5a4.662 4.662 0 011.352 3.25v32.5c0 2.5-2.051 4.551-4.602 4.551zm0 0"></path><path fill="#454B54" d="M36.5 61H9c-3.352 0-6.102-2.75-6.102-6.102V15.95c0-3.347 2.75-6.097 6.102-6.097h21c1.602 0 3.148.648 4.3 1.796l6.5 6.5a6.116 6.116 0 011.802 4.301v32.5c0 3.301-2.75 6.051-6.102 6.051zM9 12.898A3.12 3.12 0 005.898 16v38.95A3.12 3.12 0 009 58.05h27.5a3.12 3.12 0 003.102-3.1v-32.5c0-.802-.301-1.598-.903-2.2l-6.5-6.5c-.597-.602-1.347-.898-2.199-.898zm0 0"></path><path fill="#454B54" d="M31.898 51.852H13.602c-.852 0-1.5-.653-1.5-1.5 0-.852.648-1.5 1.5-1.5h18.347c.852 0 1.5.648 1.5 1.5 0 .847-.699 1.5-1.55 1.5zm0-6.903H13.602c-.852 0-1.5-.648-1.5-1.5 0-.847.648-1.5 1.5-1.5h18.347c.852 0 1.5.653 1.5 1.5 0 .852-.699 1.5-1.55 1.5zm0-6.847H13.602c-.852 0-1.5-.653-1.5-1.5 0-.852.648-1.5 1.5-1.5h18.347c.852 0 1.5.648 1.5 1.5 0 .847-.699 1.5-1.55 1.5zm0 0"></path></svg>