<svg xmlns="http://www.w3.org/2000/svg" viewBox="0 0 64 64"><path fill="#444B54" d="M61.05 38c-2.25 0-4.448-.898-6.05-2.5a8.505 8.505 0 01-6.05 2.5H27.5c-2.75 0-5-2.25-5-5V5.5c0-2.75 2.25-5 5-5H55c2.75 0 5 2.25 5 5v22.102c0 3 1.25 5.796 3.3 7.847.95.95.302 2.602-1.05 2.602h-1.2zm0 0"></path><path fill="#FFF" d="M50.398 25.95l-7.5-20C42.7 5.397 42.148 5 41.5 5c-.648 0-1.2.398-1.398.95L33.5 23h12.602l1.5 4.05c.25.598.796.95 1.398.95.2 0 .352-.05.55-.102a1.511 1.511 0 00.848-1.949zM38.051 20l3.449-9.25L44.95 20zm0 0"></path><path fill="#3F4A54" d="M53.5 60.5a1.5 1.5 0 100 3 1.5 1.5 0 000-3zm0 0"></path><path fill="#FFF" d="M47 62h-6.45c-2.25 0-4.448-.898-6.05-2.5a8.505 8.505 0 01-6.05 2.5H7c-2.75 0-5-2.25-5-5V29.5c0-2.75 2.25-5 5-5h27.5c2.75 0 5 2.25 5 5v22.102C39.5 56.3 42.5 60.5 47 62zm0 0"></path><path fill="#444B54" d="M27.8 41.7c0-.052.052-.098.052-.098.199-.801-.25-1.602-1.051-1.852-.7-.2-1.45.148-1.75.8-.153-.05-.301-.05-.45-.1-1.601-.302-3.351-.25-5.101.1 0-1.152.05-2.198.102-3.152h10.347c.852 0 1.5-.648 1.5-1.5 0-.847-.648-1.5-1.5-1.5H19.852c.199-1.449.347-2.296.347-2.296.153-.801-.347-1.602-1.148-1.75-.801-.153-1.602.347-1.75 1.148-.051.148-.25 1.2-.45 2.95h-4.55c-.852 0-1.5.652-1.5 1.5 0 .85.648 1.5 1.5 1.5h4.3c-.101 1.198-.101 2.6-.101 4.05-1.102.45-2.102 1-3.05 1.7-2.15 1.6-3.552 3.75-3.802 5.948-.199 1.75.301 3.454 1.454 4.852 1.347 1.648 3.199 2.352 5.046 2.352 1.551 0 3.102-.5 4.301-1.403 3.051-2.25 5.2-7 6.352-10.148.25.25.449.5.648.8 1.95 3.149.45 5-2.25 7.7-.148.148-.347.3-.5.5-.597.597-.597 1.55 0 2.097.602.602 1.551.602 2.102 0 .148-.148.3-.296.449-.449 2.25-2.25 6.102-6 2.7-11.398-.5-1-1.25-1.75-2.15-2.352zM13.399 52c-.648-.75-.898-1.648-.796-2.602.148-1.347 1.148-2.796 2.597-3.898.45-.3.903-.602 1.403-.852.199 2.602.699 5.352 1.546 8.102-1.296.7-3.398.898-4.75-.75zm7.204-1.602c-.602-2.296-.903-4.597-1.051-6.796.949-.204 1.847-.352 2.75-.352.597 0 1.148.05 1.699.148h.102c-.801 2.204-2 4.954-3.5 7zm0 0"></path><path fill="#444B54" d="M46.898 63.5H40.5c-2.648 0-5.148-1.05-7.05-2.898-.5-.5-.65-1.25-.302-1.852.551-.95 1.75-1.05 2.454-.3 1.25 1.402 3.148 2 5 2h1.097C39.4 58.147 38 55 38 51.55V29.5c0-1.95-1.55-3.5-3.5-3.5H7a3.48 3.48 0 00-3.5 3.5V57c0 1.95 1.55 3.5 3.5 3.5h21.352c.796 0 1.546.602 1.597 1.45.051.85-.648 1.55-1.5 1.55H7A6.485 6.485 0 01.5 57V29.5C.5 25.898 3.398 23 7 23h26.5s7.5 3.5 7.5 3.25v25.352c0 4.097 2.602 7.699 6.45 9 .8.25 1.25 1.199.902 2.046-.204.5-.801.852-1.454.852zm0 0"></path></svg>