<svg width="44px" height="63px" viewBox="0 0 44 63" version="1.1">
                                            <g stroke="none" stroke-width="1" fill="none" fill-rule="evenodd">
                                                <g transform="translate(0.000000, 1.000000)">
                                                    <path
                                                        d="M15,44 L17,52"
                                                        stroke="#999999"
                                                        stroke-width="2"
                                                        stroke-linecap="round"
                                                        stroke-linejoin="round"
                                                    ></path>
                                                    <path
                                                        d="M29,44 L27,52"
                                                        stroke="#999999"
                                                        stroke-width="2"
                                                        stroke-linecap="round"
                                                        stroke-linejoin="round"
                                                    ></path>
                                                    <path
                                                        d="M33.92,44 C39.41,38 43,28.82 43,21.49 C43.1333198,9.75750809 33.7324462,0.137280776 22,0 C10.2675538,0.137280776 0.866680171,9.75750809 1,21.49 C1,28.82 4.59,38 10.08,44 L33.92,44 Z"
                                                        stroke="#54596E"
                                                        stroke-width="2"
                                                        fill="#FFD578"
                                                        stroke-linecap="round"
                                                        stroke-linejoin="round"
                                                    ></path>
                                                    <path
                                                        d="M33.92,39 L10.08,39 C5.15511183,33.4084083 2.03841174,26.4568424 1.14,19.06 C1.06,19.86 1,20.67 1,21.49 C1,28.82 4.59,38 10.08,44 L33.92,44 C39.41,38 43,28.82 43,21.49 C43,20.67 42.94,19.86 42.86,19.06 C41.9615883,26.4568424 38.8448882,33.4084083 33.92,39 Z"
                                                        fill="#54596E"
                                                        opacity="0.15"
                                                    ></path>
                                                    <path
                                                        d="M28.25,44 C31.12,38 33,28.82 33,21.49 C33,9.62 28.08,0 22,0 C15.92,0 11,9.62 11,21.49 C11,28.82 12.88,38 15.75,44 L28.25,44 Z"
                                                        stroke="#54596E"
                                                        stroke-width="2"
                                                        fill="#F4A14E"
                                                        stroke-linecap="round"
                                                        stroke-linejoin="round"
                                                    ></path>
                                                    <ellipse fill="#54596E" cx="22" cy="32" rx="3" ry="5"></ellipse>
                                                    <circle fill="#54596E" cx="6" cy="21" r="2"></circle>
                                                    <circle fill="#54596E" cx="38" cy="21" r="2"></circle>
                                                    <polygon
                                                        stroke="#54596E"
                                                        stroke-width="2"
                                                        fill="#A1B7FF"
                                                        stroke-linecap="round"
                                                        stroke-linejoin="round"
                                                        points="27 61 17 61 16 52 28 52"
                                                    ></polygon>
                                                    <path
                                                        d="M14,52 L30,52"
                                                        stroke="#54596E"
                                                        stroke-width="2"
                                                        stroke-linecap="round"
                                                        stroke-linejoin="round"
                                                    ></path>
                                                </g>
                                            </g>
                                        </svg>