<svg xmlns="http://www.w3.org/2000/svg" fill="none" viewBox="0 0 24 25" class="mr-2 w-[1.5em] min-w-[1.5em]">
                                            <path
                                                stroke="currentColor"
                                                stroke-linecap="round"
                                                stroke-linejoin="round"
                                                stroke-width="1.5"
                                                d="M2.99 5.765c.316-.525 2.06-2.43 3.303-2.372.372.032.7.256.967.516h.001c.613.6 2.369 2.864 2.467 3.34.244 1.169-1.15 1.842-.724 3.02 1.087 2.659 2.96 4.531 5.62 5.617 1.176.427 1.85-.966 3.019-.723.476.1 2.74 1.854 3.34 2.467v0c.26.266.485.596.516.968.046 1.31-1.977 3.076-2.371 3.302-.93.667-2.145.655-3.625-.033-4.13-1.719-10.73-8.193-12.48-12.479-.669-1.471-.714-2.694-.033-3.623z"
                                                clip-rule="evenodd"
                                            ></path>
                                            <path
                                                stroke="currentColor"
                                                stroke-linecap="round"
                                                stroke-linejoin="round"
                                                stroke-width="1.5"
                                                d="M14.565 3.642a7.97 7.97 0 017.041 7.032M14.565 7.185a4.426 4.426 0 013.498 3.498"
                                            ></path>
                                        </svg>