<svg xmlns="http://www.w3.org/2000/svg" viewBox="0 0 64 64"><path fill="#C7D6E2" d="M50 56.5H14a2.502 2.502 0 01-2.5-2.5V28c0-1.379 1.121-2.5 2.5-2.5h36c1.379 0 2.5 1.121 2.5 2.5v26c0 1.379-1.121 2.5-2.5 2.5zm0 0"></path><path fill="#E7ECF3" d="M14 25.5a2.502 2.502 0 00-2.5 2.5v13h41V28c0-1.379-1.121-2.5-2.5-2.5zm0 0"></path><path fill="#F8E390" d="M48.5 19.5C48.5 10.387 41.113 3 32 3s-16.5 7.387-16.5 16.5v6h6v-6C21.5 13.7 26.2 9 32 9s10.5 4.7 10.5 10.5v6h6zm0 0"></path><path fill="#F6E5AB" d="M32 32.5a8.499 8.499 0 00-8.5 8.5c0 4.695 3.805 8.5 8.5 8.5s8.5-3.805 8.5-8.5-3.805-8.5-8.5-8.5zm0 0"></path><path fill="#CD928D" d="M32 37c-2.21 0-4 1.79-4 4s1.79 4 4 4 4-1.79 4-4-1.79-4-4-4zm0 0"></path><path fill="none" stroke="#444B54" stroke-linejoin="round" stroke-miterlimit="10" stroke-width="3" d="M50 56.5H14a2.502 2.502 0 01-2.5-2.5V28c0-1.379 1.121-2.5 2.5-2.5h36c1.379 0 2.5 1.121 2.5 2.5v26c0 1.379-1.121 2.5-2.5 2.5zm0 0"></path><path fill="none" stroke="#444B54" stroke-linecap="round" stroke-linejoin="round" stroke-miterlimit="10" stroke-width="3" d="M23.875 38.5A8.499 8.499 0 0032 49.5c4.695 0 8.5-3.805 8.5-8.5a8.499 8.499 0 00-11-8.125M21.5 21v-1.5C21.5 13.7 26.2 9 32 9s10.5 4.7 10.5 10.5V21"></path><path fill="none" stroke="#444B54" stroke-linecap="round" stroke-linejoin="round" stroke-miterlimit="10" stroke-width="3" d="M15.5 21v-1.5C15.5 10.387 22.887 3 32 3s16.5 7.387 16.5 16.5V21"></path></svg>