<svg xmlns="http://www.w3.org/2000/svg" viewBox="0 0 64 64"><path fill="#F7F7FB" d="M32 6C17.7 6 6.102 17.648 6.102 32S17.699 58 32 58c14.3 0 25.898-11.648 25.898-26S46.301 6 32 6m0 40.5c-8 0-14.45-6.5-14.45-14.5S24 17.5 32 17.5c8 0 14.45 6.5 14.45 14.5S40 46.5 32 46.5"></path><path fill="#F37778" d="M19.102 9.45l5.75 10A14.39 14.39 0 0132 17.55c2.648 0 5.148.75 7.3 2l5.75-10C41.2 7.3 36.75 6 32 6c-4.7 0-9.102 1.25-12.898 3.45M57.898 32H46.45c0 2.5-.597 5-1.949 7.3-1.3 2.25-3.102 4-5.2 5.25l5.7 9.9c7.75-4.5 12.898-12.848 12.898-22.45"></path><path fill="#C8C9CD" d="M45.05 9.55l-1.933 3.36A25.955 25.955 0 0151.45 32h6.45c0-15.25-12.848-22.45-12.848-22.45zm0 0"></path><path fill="#C56264" d="M32 6c-1.074 0-2.152.094-3.18.195-.02 0-.043.004-.062.004a25.825 25.825 0 0114.36 6.711l1.933-3.36C41.207 7.306 36.77 6.005 32.027 6h-.011H32"></path><path fill="#C8C9CD" d="M45 54.45l-1.914-3.329a25.807 25.807 0 01-14.324 6.676S37.488 58.945 45 54.449zm0 0"></path><path fill="#C56264" d="M57.898 32H51.45c0 7.559-3.222 14.367-8.367 19.121L45 54.45a25.922 25.922 0 007.902-7.101 25.93 25.93 0 004.996-15.285v-.008-.008-.008-.008-.008-.007-.004V32"></path><path fill="#F37778" d="M17.602 31.898H6.199c0 4.454 1.102 8.954 3.45 13.102a26.205 26.205 0 009.402 9.45l5.75-9.95c-4.653-2.648-7.25-7.55-7.2-12.602zm0 0"></path><path fill="#454B54" d="M32 59.5C16.898 59.5 4.602 47.148 4.602 32S16.898 4.5 32 4.5 59.398 16.852 59.398 32 47.102 59.5 32 59.5zm0-52C18.55 7.5 7.602 18.5 7.602 32S18.55 56.5 32 56.5c13.45 0 24.398-11 24.398-24.5S45.45 7.5 32 7.5zm0 40.45c-8.8 0-15.898-7.15-15.898-15.95 0-8.8 7.097-15.95 15.898-15.95 8.8 0 15.898 7.15 15.898 15.95 0 8.8-7.097 15.95-15.898 15.95zm0-28.9c-7.148 0-12.898 5.802-12.898 12.95S24.852 44.95 32 44.95 44.898 39.147 44.898 32 39.148 19.05 32 19.05zm0 0"></path></svg>