<svg xmlns="http://www.w3.org/2000/svg" viewBox="0 0 64 64"><path fill="#6E6E8E" d="M54.5 54.5h-35c-2.75 0-5-2.25-5-5v-35c0-2.75 2.25-5 5-5h35c2.75 0 5 2.25 5 5v35c0 2.75-2.25 5-5 5zm0 0"></path><path fill="#D4D3DD" d="M44.5 54.5h-35c-2.75 0-5-2.25-5-5v-35c0-2.75 2.25-5 5-5h35c2.75 0 5 2.25 5 5v35c0 2.75-2.25 5-5 5zm0 0"></path><path fill="#F2F2F4" d="M9.5 48.5v-33c0-.55.45-1 1-1h33c.55 0 1 .45 1 1v33c0 .55-.45 1-1 1h-33c-.55 0-1-.45-1-1zm0 0"></path><path fill="none" stroke="#444B54" stroke-linecap="round" stroke-linejoin="round" stroke-miterlimit="10" stroke-width="3" d="M44.5 9.5h10c2.75 0 5 2.25 5 5m0 0v35c0 2.75-2.25 5-5 5V57m-10-2.5V57m-35-2.5V57"></path><path fill="#88A" d="M39.5 16a3.5 3.5 0 100 7 3.5 3.5 0 100-7zm0 0"></path><path fill="#444B54" d="M39.5 18a1.5 1.5 0 100 3 1.5 1.5 0 000-3zm0 0"></path><path fill="none" stroke="#444B54" stroke-linecap="round" stroke-linejoin="round" stroke-miterlimit="10" stroke-width="3" d="M52 19.5h-2.5v-5c0-2.75-2.25-5-5-5h-35c-2.75 0-5 2.25-5 5v35c0 2.75 2.25 5 5 5h35c2.75 0 5-2.25 5-5v-5H52M49.5 25v14"></path><path fill="#FFF" stroke="#444B54" stroke-linecap="round" stroke-linejoin="round" stroke-miterlimit="10" stroke-width="3" d="M23.465 28.465a4.998 4.998 0 000 7.07 4.998 4.998 0 007.07 0 4.998 4.998 0 000-7.07 4.998 4.998 0 00-7.07 0zm0 0"></path><path fill="none" stroke="#444B54" stroke-linecap="round" stroke-linejoin="round" stroke-miterlimit="10" stroke-width="3" d="M23.45 28.45l-3.5-3.5m10.6 3.5l3.5-3.5m-3.5 10.6l3.5 3.5m-10.6-3.5l-3.5 3.5"></path></svg>