<svg xmlns="http://www.w3.org/2000/svg" viewBox="0 0 64 64"><path fill="#FFF" d="M43.352 40.852L25.648 58.5 8 40.852 43.352 5.5c8.398 8.398 8.398 26.898 0 35.352zm0 0"></path><path fill="#ADF9D2" d="M43.352 40.852L25.648 58.5l-7.046-7.05A133.637 133.637 0 0042.5 8.05l.852-2.55c9.75 9.75 9.75 25.602 0 35.352zm0 0"></path><path fill="#444B54" d="M51.45 32.7c-.598-.598-1.552-.598-2.098 0L25.648 56.397 10.102 40.852l4.949-4.954 2.5 2.454c.3.296.699.449 1.05.449.348 0 .75-.153 1.047-.45.602-.601.602-1.55 0-2.101L17.2 33.8l4.95-4.948 6 6c.3.296.703.449 1.05.449.352 0 .75-.153 1.051-.45.602-.601.602-1.55 0-2.101l-6-6 4.95-4.95 2.448 2.45c.301.3.704.45 1.051.45.352 0 .75-.15 1.051-.45.602-.602.602-1.55 0-2.102L31.3 19.7l4.95-4.949 6 6c.3.3.7.45 1.05.45.4 0 .75-.15 1.052-.45.597-.602.597-1.55 0-2.102l-6-6 6-6c.597-.597.597-1.546 0-2.097-.602-.602-1.551-.602-2.102 0L6.898 39.8c-.597.597-.597 1.55 0 2.097l17.704 17.704c.296.296.699.449 1.046.449.352 0 .75-.153 1.051-.45l24.75-24.75a1.51 1.51 0 000-2.152zm0 0"></path></svg>